<svg xmlns="http://www.w3.org/2000/svg" viewBox="0 0 596 143"><defs><style>.a{fill:#fff;}</style></defs><title>logo-minecraft-realms</title><path class="a" d="M816,28l-2-6-2-6-2-6L807-4l-2-8,12-14-6-20H401l-2,12-5-12H300l-3,13h-8v3L277-45H246L222,31l27,25h30l4-14h8l12,14h40l-5,26,36,15h18V93l8,4h19V94l5,3h46V93l3,4h21V87h1l3,11h70l3-4v4h20l6-5v5h19l5-3v3h38l36-14V80l7-2-4-19h17l18-25h7l11-16,11,43h31l25-25V28ZM560,56h11l-2,3v3H549V56h11ZM555,9H529V3h26V9ZM521,57h0Z" transform="translate(-222 46)"></path><polygon points="374 31 373 17 365 17 366 31 374 31"></polygon><polygon points="428 24 429 27 424 27 426 41 432 41 431 36 440 36 440 41 446 40 444 27 439 27 439 24 449 24 447 15 437 15 438 23 429 23 428 15 418 15 419 24 428 24"></polygon><polygon points="261 101 280 101 280 99 261 99 261 101"></polygon><path d="M816,28l-2-6-2-6-2-6L807-4l-2-8,12-14-6-20H401l-2,12-5-12H300l-3,13h-8v3L277-45H246L222,31l27,25h30l4-14h8l12,14h40l-5,26,36,15h18V93l8,4h19V94l5,3h46V93l3,4h21V87h1l3,11h70l3-4v4h20l6-5v5h19l5-3v3h38l36-14V80l7-2-4-19h17l18-25h7l11-16,11,43h31l25-25V28ZM679-41l12,69H667L664,5h-9l3,22H633l-8-69h54Zm-63,0,3,25h-8v8h8l4,35H599L597-2h-9l2,29H565l-3-69h54ZM560,56h11l-2,3v3H549V56h11ZM555,9H529V3h26V9ZM437-41h54v12H459v14h32V-2H457V13h33V27H430ZM287,27l7-29h-9l-4,14H266l4-14h-9l-9,29H229l22-68h22l-4,12h8l-4,13h17l4-13h8l3-13h23L312,27H287Zm34,0,15-68h23L345,28H321Zm73,31h-8v2h8l-3,18H377l2-13H361l-3,13H345l8-37h36v6h8Zm3-32,3-22h-8l2-14h-9l-6,36H355l13-68h23l-2,13h8l-2,13h9l4-26h23l-8,69H397Zm58,26H423v2h16V66H422v2h32V79H407l5-37h44V53Zm59,26H501V66H482V79H468l2-30h8V43h28v6h8V79ZM498,27l2-68h54v12H523V13h33V27H498Zm23,30h0Zm9,22V43h13V68h32V79H530Zm93,0-2-20h-3v6H605V60h-3l2,20H590l-3-36h13v6h8v6h3V50h8V43h13l5,36H622Zm65,0H651l-2-11h31V67H656V60h-8l-2-11h8V43h35l2,10H659v2h23v6h8l2,11h-8v7ZM719-2l6,29H701L688-41h54l3,12H713l3,14h32l3,14H719Zm66,29L770-29H754l-3-12h54l4,12H794l2,8,2,8,3,9,3,9,2,5,2,6,2,6,2,6H785Z" transform="translate(-222 46)"></path><polygon points="141 100 160 100 160 98 142 98 141 100"></polygon></svg>
